<?xml version="1.0" standalone="no"?>
<!DOCTYPE svg PUBLIC "-//W3C//DTD SVG 20010904//EN"
 "http://www.w3.org/TR/2001/REC-SVG-20010904/DTD/svg10.dtd">
<svg version="1.0" xmlns="http://www.w3.org/2000/svg"
 width="750.000000pt" height="750.000000pt" viewBox="0 0 750.000000 750.000000"
 preserveAspectRatio="xMidYMid meet">

<g transform="translate(0.000000,750.000000) scale(0.100000,-0.100000)"
fill="#000000" stroke="none">
<path d="M6940 7128 c-74 -32 -100 -43 -154 -69 -33 -16 -63 -29 -68 -29 -5 0
-51 -20 -102 -45 -52 -25 -97 -45 -100 -45 -4 0 -40 -16 -80 -35 -41 -19 -76
-35 -79 -35 -3 0 -44 -18 -91 -40 -47 -22 -88 -40 -90 -40 -3 0 -38 -15 -78
-34 -40 -19 -91 -42 -113 -51 -22 -10 -69 -31 -105 -47 -36 -17 -74 -34 -85
-38 -11 -4 -54 -24 -95 -43 -41 -19 -95 -43 -120 -53 -25 -10 -69 -31 -99 -46
-29 -16 -58 -28 -65 -28 -6 0 -52 -20 -100 -45 -49 -25 -95 -45 -102 -45 -7 0
-43 -16 -80 -35 -37 -19 -73 -35 -80 -35 -8 0 -14 -4 -14 -10 0 -5 -8 -10 -18
-10 -10 0 -49 -16 -86 -35 -38 -19 -74 -35 -81 -35 -7 0 -52 -20 -101 -45 -48
-25 -93 -45 -99 -45 -6 0 -51 -20 -99 -45 -49 -25 -94 -45 -101 -45 -7 0 -42
-16 -79 -35 -37 -19 -72 -35 -78 -35 -6 0 -51 -20 -102 -44 -50 -24 -107 -50
-126 -57 -19 -7 -52 -23 -72 -36 -21 -13 -44 -23 -53 -23 -8 0 -15 -4 -15 -10
0 -5 -11 -10 -24 -10 -14 0 -28 -4 -31 -10 -3 -5 -13 -10 -22 -10 -9 0 -24 -7
-34 -16 -10 -9 -44 -18 -81 -21 -43 -4 -89 -18 -148 -46 -190 -88 -229 -106
-320 -151 -52 -26 -84 -44 -70 -41 75 19 90 24 120 39 18 9 39 16 47 16 11 0
13 -321 13 -1945 0 -1943 0 -1946 20 -1935 11 6 20 8 20 4 0 -3 10 0 23 9 12
8 38 18 57 22 19 4 43 14 52 22 9 8 25 12 36 9 13 -4 22 -1 26 9 4 11 13 14
31 9 21 -5 24 -3 19 11 -6 15 -2 16 37 10 41 -7 43 -6 29 10 -14 16 -12 17 26
11 34 -6 55 -1 135 35 52 22 335 145 629 271 596 256 596 256 627 290 20 21
159 319 270 578 34 79 51 105 62 95 2 -3 0 -10 -6 -17 -5 -7 -23 -49 -40 -93
-18 -44 -39 -93 -47 -110 -9 -16 -16 -34 -16 -38 0 -10 -34 -91 -55 -130 -8
-16 -15 -37 -15 -47 0 -10 -4 -22 -10 -25 -5 -3 -10 -17 -10 -29 0 -13 -7 -29
-15 -36 -8 -7 -15 -28 -15 -47 0 -19 -4 -32 -9 -29 -18 12 -21 -74 -21 -660 0
-332 -3 -604 -6 -604 -3 0 -22 7 -41 16 -23 12 -37 14 -44 7 -7 -7 -2 -13 15
-17 14 -3 26 -11 26 -16 0 -6 6 -10 13 -10 7 0 39 -13 72 -29 33 -16 78 -36
100 -46 22 -10 72 -32 110 -50 39 -18 93 -43 120 -55 28 -13 82 -37 120 -55
39 -17 99 -45 135 -61 36 -16 67 -32 68 -36 2 -5 12 -8 21 -8 10 0 58 -20 107
-45 49 -25 94 -45 100 -45 6 0 51 -20 100 -45 49 -25 94 -45 100 -45 6 0 51
-20 100 -45 48 -25 93 -45 99 -45 6 0 42 -16 81 -35 38 -19 77 -35 87 -35 9 0
17 -4 17 -10 0 -5 6 -10 13 -10 6 0 45 -16 84 -35 40 -19 79 -35 88 -35 8 0
15 -4 15 -8 0 -4 21 -14 46 -21 42 -13 48 -12 88 8 27 15 48 35 60 59 10 20
23 45 28 56 6 12 6 22 -1 29 -6 6 -11 18 -11 27 0 8 -20 56 -45 104 -25 49
-45 95 -45 101 0 6 -20 52 -45 101 -25 48 -45 99 -45 111 0 13 -4 23 -8 23 -5
0 -15 18 -22 40 -7 22 -19 45 -27 51 -7 6 -13 22 -13 35 0 12 -4 26 -10 29 -5
3 -10 15 -10 26 0 10 -4 19 -10 19 -5 0 -10 6 -10 13 0 6 -12 37 -26 67 -15
30 -30 64 -34 75 -4 11 -24 53 -44 93 -20 40 -36 78 -36 85 0 7 -14 39 -30 72
-17 33 -30 63 -30 68 0 5 -7 15 -15 23 -8 9 -15 26 -15 40 0 13 -4 24 -10 24
-5 0 -10 7 -10 15 0 8 -9 30 -20 50 -11 20 -20 42 -20 50 0 8 -4 15 -10 15 -5
0 -14 17 -20 38 -5 20 -21 59 -35 86 -14 27 -25 54 -25 61 0 6 -16 42 -35 79
-19 38 -35 75 -35 82 0 8 -4 14 -10 14 -5 0 -10 9 -10 19 0 11 -16 50 -35 88
-19 37 -35 74 -35 81 0 6 -4 12 -10 12 -5 0 -10 9 -10 19 0 11 -7 32 -15 48
-9 15 -20 39 -25 53 -6 14 -14 32 -19 40 -8 14 -15 31 -40 93 -24 60 -42 97
-51 102 -6 3 -10 14 -10 24 0 10 -14 46 -30 82 -32 67 -44 91 -80 174 -13 28
-33 73 -45 100 -13 28 -30 66 -38 85 -8 19 -27 62 -42 95 -15 33 -34 76 -42
95 -15 35 -33 75 -69 157 -11 24 -22 43 -26 43 -11 0 -10 107 1 128 16 31 64
137 71 157 5 11 19 45 33 75 13 30 33 75 44 100 11 25 35 75 52 112 17 37 31
70 31 74 0 4 20 49 45 101 25 51 45 97 45 102 0 5 16 40 35 77 19 38 35 75 35
82 0 11 9 33 32 72 4 8 13 26 19 40 6 14 17 41 26 60 8 19 19 44 23 55 4 11
24 53 44 93 20 41 36 79 36 85 0 7 16 46 36 87 20 41 40 84 44 95 5 11 24 55
44 97 20 43 36 80 36 83 0 3 18 44 40 91 22 47 40 88 40 91 0 3 20 48 45 100
25 52 45 98 45 104 0 5 11 30 24 57 13 26 28 58 33 72 21 53 36 86 44 100 5 8
12 22 15 30 3 8 14 32 25 53 10 22 19 47 19 58 0 10 5 19 10 19 6 0 10 8 10
18 0 10 4 22 9 27 5 6 21 39 36 75 15 36 47 107 71 157 24 51 44 97 44 101 0
5 16 41 35 81 19 39 35 75 35 79 0 4 18 45 41 91 22 47 46 108 52 136 9 47 8
55 -14 95 -40 74 -128 108 -199 78z m-3490 -1590 c0 -4 -15 -8 -32 -7 -26 0
-29 2 -13 8 25 10 45 10 45 -1z m2175 -2155 c-3 -16 -12 -35 -19 -43 -8 -8
-17 -28 -21 -45 -4 -16 -9 -25 -12 -18 -2 6 4 31 15 55 10 24 22 51 25 61 10
28 20 20 12 -10z m-82 -185 c-44 -106 -63 -144 -63 -124 0 10 16 52 35 93 19
41 35 79 35 84 0 5 4 9 10 9 5 0 -2 -28 -17 -62z"/>
<path d="M3155 5460 c-3 -5 -1 -10 4 -10 6 0 11 5 11 10 0 6 -2 10 -4 10 -3 0
-8 -4 -11 -10z"/>
<path d="M5180 2350 c0 -5 5 -10 10 -10 6 0 10 5 10 10 0 6 -4 10 -10 10 -5 0
-10 -4 -10 -10z"/>
<path d="M5040 1240 c0 -5 5 -10 10 -10 6 0 10 5 10 10 0 6 -4 10 -10 10 -5 0
-10 -4 -10 -10z"/>
<path d="M5070 1220 c0 -5 7 -10 16 -10 8 0 12 5 9 10 -3 6 -10 10 -16 10 -5
0 -9 -4 -9 -10z"/>
</g>
</svg>
